<svg width="14" height="12" viewBox="0 0 14 12" fill="none" xmlns="http://www.w3.org/2000/svg">
<path d="M7 0C6.73762 -3.90978e-09 6.47781 0.0516797 6.2354 0.152089C5.99299 0.252498 5.77273 0.399669 5.5872 0.585201C5.40167 0.770732 5.2545 0.99099 5.15409 1.2334C5.05368 1.47581 5.002 1.73562 5.002 1.998C5.002 2.26038 5.05368 2.52019 5.15409 2.7626C5.2545 3.00501 5.40167 3.22527 5.5872 3.4108C5.77273 3.59633 5.99299 3.7435 6.2354 3.84391C6.47781 3.94432 6.73762 3.996 7 3.996C7.5299 3.996 8.0381 3.7855 8.4128 3.4108C8.7875 3.0361 8.998 2.5279 8.998 1.998C8.998 1.4681 8.7875 0.959898 8.4128 0.585201C8.0381 0.210503 7.5299 0 7 0ZM11.5 0.998C11.1022 0.998 10.7206 1.15604 10.4393 1.43734C10.158 1.71864 10 2.10018 10 2.498C10 2.89582 10.158 3.27736 10.4393 3.55866C10.7206 3.83996 11.1022 3.998 11.5 3.998C11.8978 3.998 12.2794 3.83996 12.5607 3.55866C12.842 3.27736 13 2.89582 13 2.498C13 2.10018 12.842 1.71864 12.5607 1.43734C12.2794 1.15604 11.8978 0.998 11.5 0.998ZM2.5 0.998C2.10218 0.998 1.72064 1.15604 1.43934 1.43734C1.15804 1.71864 1 2.10018 1 2.498C1 2.89582 1.15804 3.27736 1.43934 3.55866C1.72064 3.83996 2.10218 3.998 2.5 3.998C2.89783 3.998 3.27936 3.83996 3.56066 3.55866C3.84197 3.27736 4 2.89582 4 2.498C4 2.10018 3.84197 1.71864 3.56066 1.43734C3.27936 1.15604 2.89783 0.998 2.5 0.998ZM4 5.991C4.00185 5.727 4.10802 5.47444 4.29536 5.28841C4.48269 5.10239 4.73599 4.99799 5 4.998H9C9.26522 4.998 9.51957 5.10336 9.70711 5.29089C9.89464 5.47843 10 5.73278 10 5.998V8.998C10.0003 9.31275 9.95099 9.62557 9.854 9.925C9.63257 10.6037 9.17644 11.1812 8.56751 11.5539C7.95859 11.9266 7.23675 12.0699 6.53163 11.9583C5.8265 11.8466 5.18428 11.4872 4.72028 10.9447C4.25628 10.4021 4.0009 9.71191 4 8.998V5.991ZM3 5.998C3 5.633 3.097 5.292 3.268 4.998H1C0.734784 4.998 0.48043 5.10336 0.292893 5.29089C0.105357 5.47843 1.38413e-07 5.73278 1.38413e-07 5.998V8.498C-0.000136048 8.9073 0.100226 9.31038 0.292273 9.67184C0.48432 10.0333 0.762177 10.3421 1.10144 10.571C1.44071 10.8 1.831 10.9422 2.23806 10.9851C2.64511 11.028 3.05646 10.9702 3.436 10.817C3.14879 10.2533 2.99937 9.62961 3 8.997V5.998ZM11 5.998V8.998C11 9.653 10.843 10.271 10.564 10.817C10.9435 10.9702 11.3549 11.028 11.7619 10.9851C12.169 10.9422 12.5593 10.8 12.8986 10.571C13.2378 10.3421 13.5157 10.0333 13.7077 9.67184C13.8998 9.31038 14.0001 8.9073 14 8.498V5.998C14 5.73278 13.8946 5.47843 13.7071 5.29089C13.5196 5.10336 13.2652 4.998 13 4.998H10.732C10.902 5.292 11 5.633 11 5.998Z" fill="#686868"/>
</svg>
