<svg width="38" height="24" viewBox="0 0 38 24" fill="none" xmlns="http://www.w3.org/2000/svg">
<path d="M29.6999 8.73385C28.9647 8.73385 28.2562 8.84786 27.5868 9.05496C27.3859 8.35538 27.2168 7.7622 27.2168 7.7622C27.2168 7.7622 26.1897 4.26772 25.7209 2.674H29.4834V2.67324C30.0865 2.67324 30.5757 3.1756 30.5757 3.79499C30.5757 4.41439 30.0865 4.91676 29.4834 4.91676C29.1749 4.91676 28.9247 5.17363 28.9247 5.49093C28.9247 5.80785 29.1749 6.06397 29.4834 6.06397C30.7037 6.06397 31.6927 5.04823 31.6927 3.79499C31.6927 2.54214 30.7033 1.52602 29.4834 1.52602H25.002C24.6934 1.52602 24.4433 1.7829 24.4433 2.1002C24.4433 2.18152 24.4603 2.25866 24.4899 2.32858L25.0853 4.35626H13.9653L13.7966 3.79499L13.5979 3.86073L13.007 1.8836C13.6478 1.51842 14.3382 1.25507 15.0353 1.25507C15.3191 1.25507 15.5489 1.0191 15.5489 0.727636C15.5489 0.436175 15.3191 0.200195 15.0353 0.200195L9.8975 0.200575C9.53897 0.200575 9.24852 0.498875 9.24852 0.867095C9.24852 1.08902 9.35508 1.28396 9.51751 1.40518L9.5164 1.4067L10.6538 2.24954L10.6545 2.24839C10.9032 2.4327 11.2073 2.54289 11.5377 2.54289C11.8485 2.54289 12.1367 2.44638 12.3769 2.28108C12.3965 2.26778 12.4165 2.25523 12.4361 2.24194L12.9807 4.0648L12.7698 4.13472L12.9848 4.8514L10.4877 9.48549C9.52676 9.00898 8.45339 8.73423 7.31453 8.73423C3.2745 8.73423 0 12.0969 0 16.2465C0 20.3961 3.2745 23.7587 7.31453 23.7587C11.1995 23.7587 14.3682 20.6465 14.6061 16.7177H15.1585C15.2995 17.3086 15.6958 17.7934 16.2234 18.0427L15.7594 20.0632H15.2222C15.1545 20.0632 15.0993 20.1194 15.0993 20.1893V20.9011C15.0993 20.971 15.1545 21.0276 15.2222 21.0276H16.9649C17.0326 21.0276 17.0877 20.971 17.0877 20.9015V20.1897C17.0877 20.1198 17.033 20.0632 16.9649 20.0632H16.4835L16.9079 18.2156C16.9482 18.2183 16.986 18.2278 17.027 18.2278C18.0926 18.2278 18.9562 17.3409 18.9562 16.2465C18.9562 15.8737 18.85 15.529 18.6758 15.2311L25.8678 7.02538L26.1786 8.0833C26.1786 8.0833 26.3222 8.54043 26.6071 9.44559C24.1151 10.643 22.3846 13.2334 22.3846 16.2465C22.3846 20.3961 25.6591 23.7587 29.6992 23.7587C33.7388 23.7587 37.0137 20.3961 37.0137 16.2465C37.0141 12.0965 33.7392 8.73385 29.6999 8.73385ZM13.3392 6.03167L15.9196 14.628C15.5274 14.9119 15.2418 15.3394 15.14 15.8383H14.6098C14.4796 13.352 13.1783 11.1902 11.2561 9.92402L13.3392 6.03167ZM7.45217 15.1198C7.12435 15.078 6.7821 15.1817 6.5305 15.4405C6.09686 15.8858 6.09686 16.6075 6.5305 17.0528C6.96414 17.4982 7.66677 17.4982 8.10041 17.0528C8.19735 16.9533 8.26913 16.8385 8.32278 16.7177H13.6271C13.5213 18.2221 12.9137 19.6961 11.7937 20.8464C9.31993 23.387 5.31024 23.387 2.83642 20.8464C0.3626 18.3057 0.3626 14.1876 2.83642 11.6469C4.77781 9.65308 7.66381 9.23127 10.0126 10.3675L7.45217 15.1198ZM8.35016 15.8383C8.31834 15.7525 8.27505 15.6708 8.22214 15.5932L10.7855 10.8037C11.1422 11.0443 11.4807 11.3243 11.7941 11.6466C12.93 12.8132 13.5376 14.3123 13.6304 15.8383H8.35016ZM17.8951 14.4855C17.6331 14.3491 17.3412 14.2648 17.0278 14.2648C16.9989 14.2648 16.9719 14.2724 16.943 14.2735L14.299 5.46852H25.412L25.5174 5.82724L17.8951 14.4855ZM29.176 16.7834C29.4649 17.0802 29.9334 17.0802 30.2223 16.7834C30.5113 16.4866 30.5117 16.0055 30.2223 15.7088C30.0758 15.5583 29.8834 15.4849 29.6918 15.4868C29.2833 14.4981 28.6772 12.7166 28.1862 11.1123C28.117 10.8862 27.9972 10.4769 27.8647 10.0205C30.027 9.3506 32.469 9.89134 34.178 11.6466C36.6518 14.1872 36.6515 18.3057 34.178 20.846C31.7042 23.3867 27.6945 23.3867 25.2207 20.846C22.7469 18.3053 22.7469 14.1872 25.2207 11.6466C25.7302 11.1233 26.307 10.714 26.9201 10.4062C27.5502 12.3252 28.3324 14.1424 29.112 15.7889C28.8922 16.0869 28.9114 16.5117 29.176 16.7834Z" fill="black"/>
<path d="M18.8718 11.3276H17.1291C17.0614 11.3276 17.0062 11.3843 17.0062 11.4542L17.0059 12.1659C17.0062 12.2358 17.061 12.2925 17.1291 12.2925H17.5616L17.303 13.4921C17.263 13.6764 17.3762 13.8588 17.5557 13.8995C17.7348 13.9405 17.9124 13.8242 17.9519 13.6399L18.2424 12.2925H18.8718C18.9395 12.2925 18.9946 12.2362 18.9946 12.1663V11.4542C18.995 11.3843 18.9398 11.3276 18.8718 11.3276Z" fill="black"/>
</svg>
