<svg width="14" height="14" viewBox="0 0 14 14" fill="none" xmlns="http://www.w3.org/2000/svg">
<path d="M13.5337 12.47C13.8267 12.763 13.8267 13.238 13.5337 13.531C13.3877 13.677 13.1957 13.751 13.0037 13.751C12.8117 13.751 12.6197 13.678 12.4737 13.531L7.00365 8.061L1.53365 13.531C1.38765 13.677 1.19566 13.751 1.00366 13.751C0.811655 13.751 0.619656 13.678 0.473656 13.531C0.180656 13.238 0.180656 12.763 0.473656 12.47L5.94366 7.00002L0.473656 1.53005C0.180656 1.23705 0.180656 0.762018 0.473656 0.469018C0.766656 0.176018 1.24166 0.176018 1.53466 0.469018L7.00466 5.93905L12.4746 0.469018C12.7676 0.176018 13.2427 0.176018 13.5357 0.469018C13.8287 0.762018 13.8287 1.23705 13.5357 1.53005L8.06565 7.00002L13.5337 12.47Z" fill="#667085"/>
</svg>
