<svg width="24" height="24" viewBox="0 0 24 24" fill="none" xmlns="http://www.w3.org/2000/svg">
<path d="M5 12C5 12.2063 5.08194 12.4041 5.22781 12.55C5.37367 12.6958 5.5715 12.7778 5.77778 12.7778H10.4444C10.6507 12.7778 10.8486 12.6958 10.9944 12.55C11.1403 12.4041 11.2222 12.2063 11.2222 12V5.77778C11.2222 5.5715 11.1403 5.37367 10.9944 5.22781C10.8486 5.08194 10.6507 5 10.4444 5H5.77778C5.5715 5 5.37367 5.08194 5.22781 5.22781C5.08194 5.37367 5 5.5715 5 5.77778V12ZM5 18.2222C5 18.4285 5.08194 18.6263 5.22781 18.7722C5.37367 18.9181 5.5715 19 5.77778 19H10.4444C10.6507 19 10.8486 18.9181 10.9944 18.7722C11.1403 18.6263 11.2222 18.4285 11.2222 18.2222V15.1111C11.2222 14.9048 11.1403 14.707 10.9944 14.5611C10.8486 14.4153 10.6507 14.3333 10.4444 14.3333H5.77778C5.5715 14.3333 5.37367 14.4153 5.22781 14.5611C5.08194 14.707 5 14.9048 5 15.1111V18.2222ZM12.7778 18.2222C12.7778 18.4285 12.8597 18.6263 13.0056 18.7722C13.1514 18.9181 13.3493 19 13.5556 19H18.2222C18.4285 19 18.6263 18.9181 18.7722 18.7722C18.9181 18.6263 19 18.4285 19 18.2222V12C19 11.7937 18.9181 11.5959 18.7722 11.45C18.6263 11.3042 18.4285 11.2222 18.2222 11.2222H13.5556C13.3493 11.2222 13.1514 11.3042 13.0056 11.45C12.8597 11.5959 12.7778 11.7937 12.7778 12V18.2222ZM13.5556 5C13.3493 5 13.1514 5.08194 13.0056 5.22781C12.8597 5.37367 12.7778 5.5715 12.7778 5.77778V8.88889C12.7778 9.09517 12.8597 9.293 13.0056 9.43886C13.1514 9.58472 13.3493 9.66667 13.5556 9.66667H18.2222C18.4285 9.66667 18.6263 9.58472 18.7722 9.43886C18.9181 9.293 19 9.09517 19 8.88889V5.77778C19 5.5715 18.9181 5.37367 18.7722 5.22781C18.6263 5.08194 18.4285 5 18.2222 5H13.5556Z" fill="#686868"/>
</svg>
