<svg xmlns="http://www.w3.org/2000/svg" viewBox="0 0 241.34 166.57"><g id="Vrstva_2" data-name="Vrstva 2"><g id="Vrstva_1-2" data-name="Vrstva 1"><path d="M131.11,108.41c4.32,3.42,5.82,6.87,5.72,11.41-.24,11.15-.05,22.31-.26,33.47-.08,3.78,1,5.5,5.06,5.26a106.06,106.06,0,0,1,13,0c3.48.2,4.76-1,4.64-4.52-.23-6.49-.12-13-.1-19.49,0-1.8.16-3.6.25-5.44,4.27-.8,5.78.76,5.7,4.71-.16,8,0,15.93,0,24.28a56.77,56.77,0,0,1,7.81.59c1.19.25,2.15,1.58,3.21,2.42-1.07,1.05-2,2.37-3.26,3-.92.49-2.28.15-3.45.15q-82,0-163.92-.06c-1.81,0-3.63-1-5.44-1.52.64-1.51,1.36-3,1.9-4.54.37-1.07.27-2.35.8-3.29.63-1.11,1.65-2.64,2.63-2.73s2.82,1.46,2.82,2.3c0,3.9,2.37,4.21,5.3,4.18,5.46,0,10.93,0,17.26,0,0-3.54-.32-6.51.13-9.35.24-1.44,1.87-2.65,2.87-4,.91,1.28,1.87,2.54,2.7,3.87.22.37.05,1,.06,1.48.23,7.93.23,7.93,9,7.21,0-3.48,0-7.06,0-10.63,0-1.67-.32-3.49.26-5,.52-1.31,2.06-2.22,3.15-3.31.74,1.24,2.07,2.45,2.13,3.72.25,5,.1,9.93.1,15.76,7,0,13.47.19,19.89-.19,1-.06,2.53-2.72,2.55-4.2.21-10.49.09-21,.07-31.48,0-3.4.8-6.18,5.41-6.87.12,2,.31,3.75.31,5.49,0,11,.08,22-.12,33-.06,3.35,1.2,4.34,4.35,4.35s4.92-.66,4.89-4.4c-.16-15.83-.22-31.65,0-47.48,0-2.94,1.72-5.86,2.64-8.8l2.12.33a35.44,35.44,0,0,1,.79,5.38c0,16.32.23,32.65-.12,49-.11,5,1.63,6.42,6.25,6a62.29,62.29,0,0,1,10.49.05c4.44.36,6-1.07,6-5.83-.21-26.31-.06-52.64-.08-79,0-3.27.18-6.31,4.79-8.21a53.32,53.32,0,0,1,.79,6.23q.09,40.74,0,81.46c0,3.34.47,5.23,4.49,5.32,3.86.09,4.37-1.67,4.35-4.81-.06-13.49,0-27,.05-40.48Z"/><path d="M200.26,112.84c7,8.31,13.85,16.45,20.74,24.55,6.36,7.49,12.89,14.84,19,22.5,1.12,1.39,1.76,5,.92,5.78-2.35,2.28-3.91-.26-5.46-2.08-12.18-14.34-24.47-28.6-36.59-43-2.33-2.76-4.15-3-7.48-1.32-24.15,12.33-53,.09-59.28-24.94-4.93-19.6,3.91-39,21.77-47.78,17.25-8.49,37.81-3.57,50.27,12,10.5,13.14,10.84,34.56.77,48.09C203.57,108.54,202.14,110.37,200.26,112.84Zm6.45-29.47A34.76,34.76,0,0,0,172,48.32c-19.38-.13-35.84,15.77-35.88,34.65a35.3,35.3,0,1,0,70.59.4Z"/><path d="M9.13,144.54a2.88,2.88,0,0,1-1.27,0c-1.59-.78-3.13-1.68-4.68-2.53,1.41-1.06,2.69-2.69,4.27-3.05,3.54-.83,7.27-.83,10.86-1.51,22.34-4.2,39.62-16.81,54.24-33.42q14.85-16.87,28.8-34.53c17.77-22.5,40.16-38.7,66.27-50.08,4.58-2,9-4.28,13.69-6.07,2-.77,4.85-3,6.21,1,1.16,3.34-1.73,3.76-3.77,4.7-7.41,3.39-14.79,6.88-22.25,10.16-27.07,11.91-47,32.16-64.79,55-11.77,15.11-23.82,30-39.11,41.88C43.35,137.13,27.23,143.07,9.13,144.54Z"/><path d="M46.2,119.92a45.63,45.63,0,0,1-.61-5.14q-.06-31.69,0-63.4c0-5.91,2.13-8.18,8-8.33s12-.15,18,0c5.45.11,7.68,2.27,7.73,7.55.11,11.64.3,23.3-.09,34.93-.09,2.62-2.46,5.16-3.78,7.74l-1.75-.66c0-11.41.06-22.82,0-34.23-.07-10.3,1.45-9.58-9.66-9.59-12.9,0-12.88,0-12.88,12.69,0,16.81-.09,33.62,0,50.42C51.11,115.34,50.21,118,46.2,119.92Z"/><path d="M31.11,126.8c-.11-1.75-.32-3.49-.32-5.23,0-14-.08-28,.1-41.95,0-3.66-1.15-5.17-4.85-5-4.32.19-8.66.22-13,0-3.82-.18-4.83,1.58-4.81,5.09.11,15.65.05,31.3,0,47,0,1.33.29,2.8-.18,4a4.31,4.31,0,0,1-2.64,2.3c-.66.13-2-1.1-2.37-2a8.47,8.47,0,0,1-.28-3.44Q2.76,103,2.74,78.54c0-7,2.22-9.26,9.24-9.36,5.33-.07,10.66-.1,16,0,6,.18,8.27,2.36,8.32,8.17.11,14.65.18,29.3,0,43.94,0,2.11-1.78,4.19-2.73,6.29Z"/><path d="M116.6,43.5c0-6.73-.31-13.48.1-20.19.31-5.14-1.57-6.91-6.55-6.49a61,61,0,0,1-10.47-.12c-4.28-.37-5.85,1.07-5.76,5.58.3,14.31,0,28.63.3,42.94.08,4.29-1.46,7.26-5.19,10.15a36.58,36.58,0,0,1-.45-3.69q-.08-26-.08-51.94c0-6.44,2.19-8.6,8.71-8.68,5.66-.06,11.32-.11,17,0s7.91,2.26,8,7.83A172.23,172.23,0,0,1,122,36.34c-.23,2.65-2.16,5.15-3.33,7.71Z"/><path d="M199.07,6.45c-7.91,0-14.86.21-21.78-.13-1.87-.09-3.66-1.82-5.49-2.8,1.87-1.15,3.69-3.22,5.59-3.31,8.31-.35,16.65-.17,25-.1,5.15,0,6.36,1.94,4,6.5-3.86,7.36-7.78,14.7-12,21.85-.74,1.26-3.12,1.54-4.74,2.27-.34-1.76-1.48-3.89-.87-5.2,2.19-4.65,5-9,7.53-13.5C197.11,10.51,197.84,8.91,199.07,6.45Z"/><path d="M147.54,82.43c2.26-9.77,5.65-17.74,15.24-20.85,1.64-.53,3.74.38,5.63.62-1.13,1.34-2,3.19-3.43,3.93-6.62,3.45-10.83,8.43-12,16-.19,1.27-2.05,2.28-3.13,3.4C149,84.35,148.1,83.17,147.54,82.43Z"/></g></g></svg>