<svg xmlns="http://www.w3.org/2000/svg" viewBox="0 0 211.81 133.47"><g id="Vrstva_2" data-name="Vrstva 2"><g id="Vrstva_1-2" data-name="Vrstva 1"><path d="M130.31,73.6c.78-3.13,1.21-5.41,1.91-7.6a24.21,24.21,0,0,1,21.59-16.65c9.23-.53,19.59,6,23.15,15.32,1.71,4.45,2.41,9.31,3.36,14a5,5,0,0,1-.85,3.24c-7.45,11.57-26.73,13.85-37.05,3.23,2.35.22,4.83,0,7.05.72a25.64,25.64,0,0,0,19.85-1.59c4.11-2.07,5.89-4.51,4.75-9.45-2-8.6-5.29-16-14.34-18.8-11-3.46-21.42,3.51-22.46,15.33-.36,4.16-2.3,7.52-5.43,7.69s-7.56-1.92-9.18-4.46C116.21,64.53,110.5,54,104.91,43.38c-.74-1.39.11-4.67,1.36-5.86a66.27,66.27,0,0,1,12.26-9.39c2.24-1.28,5.73-1.35,8.39-.76,9.91,2.17,19.7,4.85,29.55,7.31a32.43,32.43,0,0,0,5.88,1.12c4.12.23,7.19-1.56,8.3-5.67a6.24,6.24,0,0,0-4.23-8C150.56,16.58,134.7,11,118.63,6.19c-2.95-.89-7.38.59-10.24,2.39-9.56,6-18.78,12.64-28,19.2-5,3.58-5.66,6.27-3.46,12,1.83,4.82,3.68,9.64,5.65,14.4,1.18,2.86.81,4.89-1.85,6.88C64.84,73,49.12,85,33.19,96.81c-1.29,1-3.71.38-5.61.52.71-1.76.9-4.18,2.19-5.17q21.81-16.71,44-33c3-2.18,3.66-4,2-7.4a93.69,93.69,0,0,1-4.68-12.1c-2-6.21-.5-11.64,4.83-15.47,10-7.2,20.16-14.16,30.36-21.09A16,16,0,0,1,120.56.77c15.65,5.1,31.34,10.13,46.8,15.75,7.76,2.82,10.68,9.11,8.67,15.72s-7.88,10.08-15.94,8.52C149,38.6,138,35.75,127,33.2c-3.54-.82-14.84,4.84-15.87,8.14a4.78,4.78,0,0,0,.73,3.2c4.57,8.31,9.15,16.62,13.93,24.81C126.7,70.91,128.49,71.94,130.31,73.6Z"/><path d="M178.2,112.38c-8-.62-17.39-1.82-25.76-6.94-5.5-3.37-10.61-3.29-16.36.06-16.7,9.74-34.22,9.33-51.2,1.39-8.19-3.84-14.59-4.58-22.7.3C46.2,116.8,16,112.64,2,99.77c-1.1-1-1-3.31-1.47-5,1.79.27,4.05-.06,5.31.9C18.78,105.58,33.29,109,49.13,106a49,49,0,0,0,14.27-5.63c6.59-3.68,12.89-4,19.44-.46,17.79,9.59,35.43,10.21,53.11-.41,6.34-3.81,12.63-2.71,18.89,1a47.37,47.37,0,0,0,36.6,5.21c5.17-1.31,9.75-4.8,14.73-7,1.53-.68,3.51-.37,5.28-.52-.63,1.63-.79,3.8-2,4.81C201,110.32,190.63,112.33,178.2,112.38Z"/><path d="M180.18,133c-10.31,0-20.17-2-29.34-6.91-4.3-2.29-8.31-2.25-12.76.12-18.37,9.76-37.19,9.26-55.71.83-6.12-2.79-11-2.68-17,0-21.94,10-43,7.93-62.82-5.87-1.3-.9-1.75-3-2.59-4.6,1.87.11,4.23-.48,5.54.44C20,127.28,35.91,130.15,53,126.17a51,51,0,0,0,11.51-4.65c6.08-3.12,12.13-3.67,18.13-.33,11.57,6.43,23.93,8,36.74,5.88A44.14,44.14,0,0,0,133,122.39c7.71-4.18,14.77-4.15,22.75-.34,16.91,8.06,33.9,8.79,50.51-1.46,1.38-.86,3.71-.17,5.6-.19-.89,1.64-1.35,3.89-2.72,4.83C200.67,131,192.61,133,180.18,133Z"/></g></g></svg>