<svg xmlns="http://www.w3.org/2000/svg" viewBox="0 0 124.01 198.41"><g id="Vrstva_2" data-name="Vrstva 2"><g id="Vrstva_1-2" data-name="Vrstva 1"><path d="M62,198.41C16.47,198.29-12,155.41,5,111.76,9.53,100,16.09,89.08,22,77.9c9.52-18.11,19.49-36,28.74-54.22C54,17.21,55.61,9.91,58.28,3.1A5.64,5.64,0,0,1,62,0c1-.14,2.9,1.68,3.26,3,8.68,30.53,26.2,56.67,41.55,83.88,6.88,12.2,13.49,24.54,16.11,38.51A61.25,61.25,0,0,1,62,198.41ZM61.88,12.12a19.53,19.53,0,0,0-1.32,2.32C53.22,34.37,42.74,52.7,32.3,71.11c-8.19,14.45-15.77,29.3-22.77,44.36C4.81,125.61,4,136.73,6.32,147.78c6,29.12,32.52,47.89,62.92,44.79,31.52-3.22,54.83-35.33,48.16-66.31-3.11-14.38-10.33-26.93-17.31-39.64Q83.89,57.1,68.21,27.28C65.77,22.66,64.14,17.61,61.88,12.12Z"/><path d="M24.26,120.54c.3,1.73.95,3.48.83,5.18-.39,5.25-1.8,10.52-1.5,15.71.59,10,5.52,17.87,13.86,23.64,1.16.8,1.45,2.87,2.15,4.35-1.78,0-4,.76-5.28,0C22,161.61,17.41,149.78,17.66,135.8c.07-3.93,1.2-7.87,2.18-11.72.35-1.37,1.7-2.48,2.59-3.71Z"/><path d="M51,66c2.71-.08,3.56,2.82,1.69,6.12Q43.32,88.6,33.88,105c-.82,1.44-1.36,3.13-2.46,4.3s-2.74,1.82-4.14,2.69c-.15-1.75-1-3.89-.34-5.2,6-11.29,12.29-22.43,18.48-33.62q1.32-2.4,2.51-4.87c.59-1.22,1.07-2.5,1.6-3.76C50,65,50.51,65.52,51,66Z"/></g></g></svg>