<svg xmlns="http://www.w3.org/2000/svg" viewBox="0 0 227.31 263.62"><g id="Vrstva_2" data-name="Vrstva 2"><g id="Vrstva_1-2" data-name="Vrstva 1"><path d="M142.61,143.65c8.49,8.39,17,16.36,24.94,24.88a24.84,24.84,0,0,1,5.58,10.83c4.05,17,7.66,34.1,11.24,51.21.73,3.5,2.36,5.48,5.77,6.57,4,1.26,7.73,3.07,11.63,4.54,4.71,1.78,6.77,5.25,6.38,10.11-.35,4.3-4.28,8.19-9,8.73-10.26,1.16-20.53,2.14-30.81,3.05-4.83.43-7.84-1.69-8.08-6.69-1-22-10.72-41.77-16.51-62.53a8.55,8.55,0,0,0-2.75-4.53c-7.92-5.48-16-10.7-24.32-16.19-8.71,9.46-17.34,18.67-25.78,28.05-5,5.59-11.29,7.59-18.45,6.57C59.23,206.37,46,204.47,33,202c-5.46-1-9.33.32-12.8,4.27a43.4,43.4,0,0,1-5.36,5.23c-3.1,2.48-7.13,3.68-10.12,1.07-2.43-2.12-5-6.24-4.62-9a244.64,244.64,0,0,1,6.61-28.66c1.23-4.41,5.48-4.88,9.15-3.76,15.8,4.82,32.13,2.22,48.13,3.9,3.11.32,4.86-.86,6.37-3.49,5.54-9.68,11.28-19.25,16.93-28.87a4.94,4.94,0,0,0,.94-2.28C88.11,130,93.8,122,99.78,114.43c9.85-12.51,13.11-27.85,19.84-43.33-7.84-.48-14.85-1-21.87-1.18-.86,0-2,2-2.61,3.24-4.32,9.75-8.61,19.5-12.71,29.33-3,7.16-8.9,10.46-15.31,8.18-7-2.48-9.77-9.11-7-16.73Q68,72.63,75.94,51.33c2.66-7.12,7-10,15.5-10.1,19.5-.14,39-.12,58.49-.18.79,0,1.59-.16,2.78-.28-.5-4.16-1.19-8.05-1.4-12C150.39,12.16,162-.66,177.34,0,185,.37,191,4,195.66,9.9c11.54,14.61,6.61,38.75-9.44,45.4-3.42,1.42-7.34,1.61-11.84,2.54l15.51,25.49c5.27-6.6,9.87-12.63,14.78-18.38a19.37,19.37,0,0,1,6.82-5.47A11.46,11.46,0,0,1,225,63c3.11,4.09,3.17,10-.35,15-6.52,9.27-13.27,18.37-19.92,27.55-1.95,2.69-3.75,5.51-5.82,8.12-5.48,6.94-14.42,7.29-20.3.71-3.65-4.09-7-8.45-11-13.42C159.2,115.28,151.08,129.15,142.61,143.65ZM118.47,47.36v-.68q-13.48,0-27,0c-4.48,0-8.32,1.3-10,5.87-5.4,14.32-10.77,28.66-16,43-1.8,5-.31,8.48,3.62,9.87,3.67,1.3,6.31-.56,8.44-5.57C82.12,89,86.73,78.14,91.7,67.43c.76-1.64,3.41-3.46,5.15-3.42,8.32.16,16.62.94,24.93,1.5,4.22.28,4.93,2.44,3.49,6.1-7.35,18.7-13.41,37.9-26.53,53.93-7.71,9.43-7.73,24.92,6,33.21,13.39,8.07,26.13,17.23,39,26.18a13.58,13.58,0,0,1,5.15,6.81c5.79,20.77,15.35,40.56,16.53,62.55.16,3,2,3.91,4.8,3.61,9.1-1,18.23-1.72,27.29-3,1.91-.26,3.57-2.32,5.34-3.55-1.32-1.7-2.3-4.11-4-5-4.62-2.25-9.7-3.56-14.31-5.82-1.94-1-4.1-3.14-4.56-5.14-3.37-14.42-6.84-28.85-9.25-43.44-1.9-11.54-6.31-21-15.56-28.42-7.25-5.84-13.75-12.59-20.47-19.06a6.37,6.37,0,0,1-1.71-3.78c0-.59,1.68-2,2.35-1.87,3.54.74,4.76-1.74,6.08-4q11-19,22-38.07c2.58-4.48,4.59-4.71,7.79-.75,3.56,4.4,6.88,9,10.56,13.3,4.79,5.61,9.2,5.54,13.51-.25,8.36-11.21,16.58-22.53,24.79-33.86,2.83-3.9,2.33-7.77-1-10-3.17-2.12-6.58-1.17-9.47,2.55-5.11,6.57-10.2,13.15-15.41,19.64-3.82,4.77-5.71,4.61-8.9-.55-5.07-8.2-9.91-16.57-15.29-24.57-2.24-3.33-1.69-6.28.27-8.65,1.24-1.5,4.16-2.29,6.3-2.23,7.83.19,14.34-3.54,17.46-10.83A29,29,0,0,0,195,21c-2.62-9.48-11.3-15.92-20.29-15.34-8.83.57-16.4,7.76-17.37,17.74-.46,4.79.68,9.82,1.59,14.65s-2.82,9.41-7.53,9.36C140.42,47.28,129.45,47.36,118.47,47.36ZM88.15,152.06c-4.52,7.67-9.41,16.36-14.77,24.76-1.19,1.86-4.17,4-6.08,3.75-17.16-1.86-34.68,1.3-51.64-3.63-1.24-.36-4.15,1.08-4.49,2.21-2.26,7.64-4.2,15.4-5.83,23.2-.32,1.53.74,4.31,2,4.93s3.88-.16,5.23-1.21a52.69,52.69,0,0,0,7.06-7c2.68-3,5.66-3.94,9.77-3.2,13.91,2.49,27.89,4.57,41.84,6.87,6.61,1.09,12.12-.6,16.58-5.75,3.59-4.16,7.41-8.11,11.07-12.21,4.15-4.67,8.24-9.4,12.17-13.9Z"/></g></g></svg>