<svg xmlns="http://www.w3.org/2000/svg" viewBox="0 0 222.64 196.95"><g id="Vrstva_2" data-name="Vrstva 2"><g id="Vrstva_1-2" data-name="Vrstva 1"><path d="M111.48,166.31H207c7.7,0,10.11-2.37,10.12-10.15q0-62.24,0-124.47c0-6.6-2-8.64-8.68-9.82-1.3-.23-2.38-1.65-3.57-2.52,1.24-1,2.39-2.74,3.73-2.91a12.24,12.24,0,0,1,13.52,9.92,31.49,31.49,0,0,1,.49,6.45q0,61,0,122c0,12.88-4.09,17-17.08,17-20,.06-40,.15-60,0-4.26,0-5.82,1.13-5.83,5.61,0,14-.21,14,13.81,13.86a119.47,119.47,0,0,1,13,.18c1.47.15,2.75,2,4.12,3.14-1.43.78-2.85,2.24-4.27,2.24q-55.24.24-110.48.08c-1.56,0-3.11-1.58-4.67-2.43,1.55-1,3.06-2.93,4.66-3,7-.35,14-.4,21-.11,4.27.19,5.64-1.44,5.31-5.47a52.92,52.92,0,0,1,0-9c.36-4-1.21-5.17-5.14-5.14-20.33.18-40.66.09-61,.13-11.71,0-16-4.21-16-15.84Q0,94.28,0,32.55C0,20.83,4.5,16.24,16.3,16.22q50.49-.11,101-.07c.34,0,.74-.12,1,0,1.53.89,3,1.84,4.53,2.77-1.44,1-2.81,2.61-4.34,2.78a95.65,95.65,0,0,1-11,.13H17c-9.68,0-11.31,1.61-11.32,11.27q0,61.23-.06,122.47c0,9,1.71,10.67,10.88,10.68q47.49,0,95,0Zm-.8,24.93v0c6.48,0,13-.08,19.44,0,2.88.06,4.33-.81,4.17-4-.19-3.82-.19-7.65,0-11.47.12-3-1-4.11-4-4.08q-19.2.22-38.39.12c-2.87,0-4.35.78-4.2,3.94.19,3.82.19,7.65,0,11.47-.13,3,1.07,4.09,4.08,4C98,191.13,104.36,191.24,110.68,191.24Z"/><path d="M128.24,19.26c.45-6.34,3.35-12.43,10.1-16.11,7.22-3.95,14.69-4.48,21.77.11,2.8,1.82,4.62,1.85,7.47.16C176.53-1.87,186.33-.69,193.34,6c6.74,6.47,8,16,3.14,25.24A29.9,29.9,0,0,1,191.11,39c-7.81,7.45-15.91,14.6-23.88,21.88-2.36,2.16-4.71,2.26-7.07.12-8.13-7.36-16.48-14.5-24.24-22.22C131,33.9,128.23,27.59,128.24,19.26Zm55.5,20.14c-7.38-4.09-7.39-4.09-12.22.52-1.57,1.49-3.09,3-4.62,4.57-4.76,4.8-5,4.71-9.88,0-3.3-3.16-5.33-8.45-12-7.5,1.19-2.28,2.44-4.51,4.31-5.31,1.26-.54,3.83.46,5,1.6,2.51,2.36,4.51,5.27,6.73,8l2.5.29c1.4-2.07,2.66-4.25,4.24-6.18,4.16-5.09,8.72-7.85,15.29-3.33,1.51,1,5.45.87,6.63-.34a14.3,14.3,0,0,0,3.45-14.8,15.24,15.24,0,0,0-12.46-11c-5.55-1-10.46.79-13.48,5.57-2.61,4.15-4.06,3-6.48-.06a14.55,14.55,0,0,0-17.55-4.36c-11.29,4.86-12.93,18.25-3.19,28.21,5.46,5.58,11.27,10.84,17.12,16,6.27,5.55,6.41,5.48,12.62.27C174.4,47.66,178.91,43.62,183.74,39.4Z"/><path d="M16.38,145l7.85-1.69v-71l2.54-.09c.14,6.7.36,13.4.4,20.1s-.09,13.66-.11,20.49,0,13.92,0,21.49c9-1.6,17.28-3,25.54-4.66.81-.16,1.45-1.62,2-2.56,2.53-4.26,6.12-5.14,10.54-3.15a12.25,12.25,0,0,0,6.36.76,126.09,126.09,0,0,0,14.67-2.81c1.35-.34,2.62-1.92,3.44-3.23,2.34-3.76,5.71-4.61,9.5-3.25s4.31,4.87,3.47,8.34c-1.2,5-7.53,6.42-11.67,2.43-2-2-3.59-2.24-6.07-1.47a95.5,95.5,0,0,1-10.18,2.46c-3.48.68-6.21,1.28-7.36,5.76-1.21,4.72-7.54,5-11.67,1.57a7.57,7.57,0,0,0-5.33-1.55c-5.91.9-11.75,2.3-17.62,3.53-5.2,1.08-5.2,1.09-5.06,7.65h6.29q83,0,166,.09c1.92,0,3.85,1.25,5.77,1.92-1.89.55-3.78,1.59-5.66,1.59q-88.49.1-177,0a52.72,52.72,0,0,1-6.69-.84Zm79.27-17.68c2.14-2.64,4.38-4.22,4.24-5.55s-2.3-3.5-3.89-3.84c-1-.23-3.62,2-3.74,3.31C92.13,122.76,93.93,124.44,95.65,127.32Zm-29,2.47c-2.58-1.81-4.28-3.87-5.42-3.6-1.57.37-2.72,2.52-4,3.9,1.34,1.18,2.63,3.21,4.05,3.3S64.11,131.59,66.65,129.79Z"/><path d="M108.16,115.44a21.57,21.57,0,0,1,2.78-1.35c6-1.9,12.15-3.54,18.07-5.71a9.54,9.54,0,0,0,4.68-4.19c2.49-4.73,5.89-6.12,11.17-4.53a9.71,9.71,0,0,0,6.28-.28c9.71-4.36,19.25-9.11,28.92-13.56,2.72-1.25,4.56-2.54,5-5.94.51-4.12,3.7-5.93,7.67-5.29,4.14.66,5.77,3.66,5.44,7.67-.38,4.77-4.39,6.74-9.69,5.49a12.12,12.12,0,0,0-7.26.46c-9.71,4.37-19.29,9-28.78,13.87a7.55,7.55,0,0,0-3.5,4.6c-1.31,6.59-6.87,9.58-12.6,5.88a8,8,0,0,0-7.8-.9c-4.87,1.68-9.85,3-14.82,4.43a48.39,48.39,0,0,1-5.14.89C108.43,116.47,108.3,116,108.16,115.44Zm38.55-7.29c.08-.72.16-1.43.23-2.15-1.86-1.42-3.71-3.92-5.6-4-1.71,0-3.47,2.63-5.21,4.1,1.62,1.74,3,4.42,4.92,4.94C142.56,111.49,144.8,109.22,146.71,108.15Zm44.88-32.44c-1.85,2.71-3.75,4.29-3.56,5.55.23,1.45,2.31,2.61,3.58,3.9,1.25-1.27,3.35-2.43,3.52-3.82S193.42,78.45,191.59,75.71Z"/></g></g></svg>