<svg xmlns="http://www.w3.org/2000/svg" viewBox="0 0 50.73 190.06"><g id="Vrstva_2" data-name="Vrstva 2"><g id="Vrstva_1-2" data-name="Vrstva 1"><path d="M0,95Q0,52.3,0,9.58C0,2,1.9.05,9.38,0Q25.87,0,42.36.11c6.21.05,8.33,2.21,8.33,8.52q.06,86.45,0,172.9c0,6.37-2,8.4-8.34,8.44q-17,.14-34,.07C2.35,190,0,187.64,0,181.48Q0,138.25,0,95Zm5.47,0h.1c0,1.5,0,3,0,4.5,0,26.81.06,53.62-.12,80.44,0,4.83,2.34,5.26,6.21,5.37,4.07.12,5.57-1.08,5.39-5.33-.32-7.14-.17-14.32.06-21.47.05-1.46,1.36-2.87,2.08-4.31.83,1.5,2.33,3,2.38,4.49.25,7.32.12,14.66.09,22,0,2.5.07,4.51,3.58,4.59,3.77.09,3.91-2,3.89-4.75,0-7.33-.11-14.66.14-22,.05-1.43,1.49-2.8,2.29-4.2.8,1.41,2.25,2.8,2.3,4.24q.43,11.22.22,22.47c-.07,3.88,2,4.3,5,4.13s6.37.67,6.32-4.07c-.05-3.66-.12-7.33-.13-11q0-79.44,0-158.89c0-4.71-1.3-6.62-6.18-6.48-9.32.28-18.65.27-28,.07-4.29-.09-5.82,1.31-5.8,5.75C5.57,38.72,5.49,66.86,5.49,95Z"/><path d="M37.68,85.3c0,10.48-.15,21,.08,31.44.08,4-.93,5.84-5.24,5.58-5-.3-10-.17-15-.07-3.06.07-4.5-.9-4.48-4.28q.13-32.44-.05-64.88c0-3.3,1.35-4.47,4.42-4.47,5.32,0,10.64,0,16-.23,3.32-.13,4.33,1.33,4.29,4.47-.11,10.82,0,21.63,0,32.44ZM17,103H17c0,1,0,2,0,3,.33,14.81-2.87,12,13.19,12.32,2.84,0,3.84-1.18,3.79-3.87-.13-7.48-.25-15-.19-22.43,0-3.57-1.33-5.27-5-4.94-1.32.12-2.66,0-4,0C17,87,17,87,17,94.5Zm16.87-34.1h0c0-1.33,0-2.66,0-4-.35-15,1.7-11.84-13-12.33C18,52.46,17,53.61,17,56.3c0,4.82-.08,9.64-.09,14.45,0,13.5,0,13.43,13.44,12.59,2.52-.15,3.63-.93,3.56-3.51C33.8,76.18,33.88,72.52,33.88,68.87Z"/><path d="M18.42,25.57c.37-1.75.34-4.14,1.4-5.85s3.15-3.46,4.8-3.48c1.91,0,5.25,1.59,5.5,3a45.25,45.25,0,0,1,.49,13.93c-.22,1.64-3.69,4.3-5.21,4-2.25-.42-4.56-2.74-5.93-4.85C18.41,30.65,18.75,28.11,18.42,25.57Z"/></g></g></svg>