<svg xmlns="http://www.w3.org/2000/svg" viewBox="0 0 204.07 252.43"><g id="Vrstva_2" data-name="Vrstva 2"><g id="Vrstva_1-2" data-name="Vrstva 1"><path d="M158.24,9.74c10.58,3.52,20.89,7.71,29.26,15.65,11.93,11.31,18,25.47,16.29,41.33-5,46.15-17.34,90.35-41.54,130.27-16.76,27.65-42.3,38.95-74.62,33.65-4.6-.76-9.22-1.37-13.78-2.31-3.1-.64-4.84,0-6,3.25-1.77,5.19-4.21,10.14-6.22,15.25-1.55,3.95-4.45,6-8.5,5.53a224,224,0,0,1-23.11-3.67c-5.82-1.35-6.76-4.18-4.51-9.68s4.29-11.22,7-16.55c1.91-3.8.25-5.43-2.68-7-13.31-7.35-22.19-18.34-26.89-32.77-4.42-13.61-3.16-27.37-.75-41A341.52,341.52,0,0,1,40.11,34.85C49.66,17.61,63,4.51,83.44,1,88,.24,92.72.32,97.36,0M73.51,24.85l-1.36.42C65.38,26.88,61.77,32.2,58.6,37.58a179.53,179.53,0,0,0-9.68,19.13c-7.82,17.85-14.74,36-17.13,55.56-1.39,11.4,1.39,21.35,9.39,29.84,8.74,9.28,19.54,14.72,31.66,18,32.12,8.64,60.7-3.15,76.29-32.45a250.46,250.46,0,0,0,22.16-58.11,50.55,50.55,0,0,0,1.37-14.8c-.3-5.18-2.4-10-7.64-12.48l-8.86-6.92A23.21,23.21,0,0,0,154.05,34c-22.6-11-46.63-13.92-71.37-12.33C79.57,21.88,76.56,23.76,73.51,24.85Zm6,193.91c20.1,4.8,37.91,3,54.29-8,13.77-9.22,22.43-22.65,29.58-37.09a353.35,353.35,0,0,0,32.07-99.45c1.13-6.83,1.72-14.07.78-20.87-2.73-19.7-16.11-31-33.47-37.52-14.93-5.61-10.75-6.07-16.64,7.7-.05.12,0,.31.16.92,4.28,1.91,8.84,3.85,13.33,6,14.74,6.92,20.08,16,18.87,32.22a44.77,44.77,0,0,1-1.67,8.81c-5.52,19.41-12.13,38.42-21.51,56.36-7.36,14.1-16.11,27-31.55,33.43-27,11.3-52.87,8.4-77.18-7.23-16.37-10.52-24.3-25.83-19.8-45.34A475.09,475.09,0,0,1,40.26,62.82c3-8.94,7.34-17.51,11.72-25.9,6.54-12.54,16.74-20.16,31.33-20.66,6.63-.22,13.27,0,19.82,0l4.21-11.17c-2-.33-3.47-.65-4.91-.76-26-2-45,8.94-57.83,31.36-14.38,25.18-24.48,52.09-32.12,80C7.73,133,3.84,150.55,5.35,168.8s10.7,30.74,27.25,38.08a35.67,35.67,0,0,0,4.52,1.28c-.34-3.21-.72-5.65-.84-8.1-.52-10.25,4.64-16.2,14.79-15.41A115.13,115.13,0,0,1,77,189.35C88.32,193,91,203.8,83.82,213.4,82.66,215,81.39,216.41,79.48,218.76Zm-2.15-20.47c-9.41-1.5-17.85-3-26.33-4-1.07-.13-3,1.45-3.5,2.67-6,14.07-11.87,28.23-17.79,42.35-1.45,3.47-.2,5.55,3.29,6.16,6.39,1.12,12.79,2.42,19.23,2.79,1.94.11,5.06-2.15,5.91-4.08C64.55,229.5,70.53,214.69,77.33,198.29Z"/><path d="M164.63,43.85c4.11,5.75,4.68,10.5,3,17-6.81,26.93-16.85,52.56-31.12,76.45-6.15,10.28-15.18,17-26.83,19.15a81.24,81.24,0,0,1-58.58-10.59c-12.43-7.51-17.29-19.31-14.88-33.69C40.37,87.67,50,65,59.66,42.35c2.85-6.66,6.6-12.65,12.49-17.08l1.36-.42c2.91-.56,5.8-1.52,8.73-1.63,23.74-.81,46.92,2.12,69.16,10.93C152.91,34.75,161.67,41.54,164.63,43.85Zm-33,63.94c7.95-.25,13.84-1.45,16.09-7.54C153,85.92,158,71.45,162.47,56.85c2-6.43-.33-10.07-6.64-12.56A176.4,176.4,0,0,0,137.44,38c-17.55-4.76-35.38-7.89-53.65-7.83-6.78,0-12.65,2-15.58,8.67-5.68,12.93-11.42,25.86-16.57,39C48,87.13,49.7,90.22,59.37,92.57c13.56,3.31,27.25,6.1,40.92,9C111.34,103.86,122.44,106,131.61,107.79Zm-28.34,43.69c2.6-.47,7.76-1,12.7-2.37,7.18-1.93,13-6,16.45-12.82,2.49-5,1.63-8-3.41-10.12-7.2-3-14.54-5.76-22-8.2-5.34-1.75-9,0-11.31,5.28-2,4.55-3.48,9.35-5.36,14C85.89,148.27,85,150.92,103.27,151.48ZM55.36,108.73l-.06.43c-1.33,0-2.66,0-4,0-9.6.17-14.27,6.31-11.54,15.56a22.52,22.52,0,0,0,3.95,7.4c5.07,6.34,12.06,9.76,19.71,11.9,3.52,1,5.89-.85,7.07-3.95,2.53-6.68,5-13.39,7.14-20.19,1.57-5,0-7.76-5.07-8.81C66.92,109.93,61.11,109.48,55.36,108.73Z"/><path d="M90.52,212.73c17.08.3,31-5.14,43-15.73,16.63-14.76,25.29-34.44,33.29-54.49a416.94,416.94,0,0,0,20.7-67.79c3.23-15.19,3.65-30.16-5.92-43.71-.14-.19,0-.59.13-1.73,6.23,6.16,10.63,13,10.74,21.07a153.48,153.48,0,0,1-2.26,30.22c-3.23,17.31-14.48,50.26-14.86,50.16-.9,2.47-1.82,4.94-2.7,7.43-7.48,21-16.2,41.3-31.74,57.78-11.7,12.4-26,19.61-43.35,19.46-3.44,0-6.87-.72-10.81-1.16.89-2.77,1.62-4.92,2.26-7.1,2.34-8-.71-15.18-8.26-18.69a72.47,72.47,0,0,0-31.54-6.54c-7.6.07-11.36,2.85-13.67,10.05-1.1,3.45-1.64,7.09-2.41,10.55-4.74-5.58,1.5-20.75,9.76-21.95,14.91-2.14,29.31,0,42.33,7.75,7.26,4.32,9.1,11.29,6.76,19.67C91.54,209.38,91.11,210.75,90.52,212.73Z"/><path d="M24.34,200.42l-14.2-15.59.94-.86L25.32,199.4Z"/><path d="M118.22,80.46c-2.09-13.29,9.73-17.89,17.24-26.25-5.05-1.21-9.18-2.14-13.28-3.2a17.76,17.76,0,0,1-5.56-2,4.6,4.6,0,0,1-1.37-3.75c.07-.62,2.18-1.6,3.21-1.43,7.21,1.17,14.41,2.47,21.53,4.07,1,.23,2.19,2.38,2.18,3.62A11.91,11.91,0,0,1,136,62.2c-5.37,3.17-9.77,7-11.29,13.67C123.82,79.73,122.12,80.34,118.22,80.46Z"/><path d="M80,70.67c2.06-5.13,6.27-18.09,8.4-22.75.37-.8,4.7-8.11,5.44-7.62C96.54,42.07,88,67.41,86.2,72a4.05,4.05,0,0,1-3.47,1.82C81.74,73.67,81,71.92,80,70.67Z"/><path d="M93.88,40.3c-.9,3-1.45,6.22-2.87,9-.56,1.08-6,1.44-7.35,1s-1.73-1.4-2.14-2.89c-.31-1.12,2.25-3.62,3.32-4.33a57.25,57.25,0,0,1,7.77-3.72Z"/><path d="M100,73.65c-2.28,1.23-3.62,2.25-5.11,2.57-.43.1-2-2.4-1.82-2.69a9.08,9.08,0,0,1,3.7-2.83C97.25,70.52,98.39,72.11,100,73.65Z"/><path d="M49.27,228.24c.74.86,3.29,2.5,3.69,4.56.79,4.14-3.68,8.28-8,8.17-3.19-.08-6-.72-5.93-4.93C39.13,231.21,42.33,228.15,49.27,228.24Z"/><polyline points="57.45 195.09 49.13 215.85 50.83 216.42 59.54 195.4 64.78 196.21 56 217.45 57.82 218.15 66.7 196.52"/></g></g></svg>