<svg xmlns="http://www.w3.org/2000/svg" viewBox="0 0 265.53 253.1"><g id="Vrstva_2" data-name="Vrstva 2"><g id="Vrstva_1-2" data-name="Vrstva 1"><path d="M102.63,212.27C99,238.85,68.93,258,41,251.71,10.8,244.92-6.57,215.12,2.33,185.92c8.78-28.78,42.71-46.36,77.42-28.63,5.63-8,12-15.82,16.67-24.48,1.42-2.61-1.3-7.79-2.85-11.49-.43-1-3.4-1.11-5.23-1.5-4.77-1-9.63-1.75-14.31-3.09-1.33-.38-2.17-2.45-4.31-5H92.78c.15-.44.3-.87.44-1.31-2.1-2-4.17-4-6.3-6-13.57-12.58-13-28.95,1.88-40.07,5.26-3.92,11.47-6.75,17.57-9.33,11.64-4.92,23.37-9.74,35.35-13.71,5.78-1.92,12.22-1.83,18.36-2.64l.38,1.48c2.21-3.25,4.61-6.41,6.61-9.8,3.78-6.38,9.13-8.39,16-5.71,8.49,3.33,17,6.64,26,10.15a51.23,51.23,0,0,0,2.13-6.57c1.28-7.65-4.36-16-13.48-20.16s-16.49-3.15-22.07,3.75c-2.17,2.7-3.64,6-5.66,8.8-.72,1-2.12,1.55-3.21,2.3-.53-1.39-1.73-2.93-1.47-4.15C167.79,6.58,180-1.84,192.27.35c14.16,2.52,30.14,15.93,22.82,34.86-.83,2.17-3.71,3.56-5.7,5.25-1.18,1-2.74,1.64-3.66,2.81-1.63,2.09-2.86,4.49-4.34,6.71-3.73,5.63-8.59,9.36-15.74,8.65-7.66-.76-12.17-5.53-14.82-12.36-.77-2-1.2-4.13-1.91-6.62-1.37.8-2.7,1.56-4.77,2.75,5.31,3.75,3.17,12.27,11,14.38-3.2,4.51.63,8.33,1.7,12.68,2.47,10.13,8.9,16.09,18.16,20.12,6.08,2.65,11.71,6.34,17.49,9.63,4.77,2.71,7,7.23,6.17,12.05-.94,5.35-5,10.43-10.17,10.12-6-.36-10.06,3-15.55,5.3,3.51,10.82,7,21.72,10.58,32.57,4.48,13.59,9.14,27.13,13.45,40.77.44,1.39-.92,3.35-1.45,5-1.44-1.22-3.66-2.17-4.19-3.7-3.85-11.18-7.33-22.47-11-33.71-.81-2.5-1.88-4.9-3-7.84-15.54,6.58-24.86,17.9-27.88,33.76-6.55,34.39,27.44,63.23,60.44,51.62,20.72-7.3,33.43-28.37,29.94-49.68a45.71,45.71,0,0,0-44.34-38.64c-1.5,0-3.07.36-4.48,0a23.25,23.25,0,0,1-4.5-2.11c1.41-1,2.76-2.77,4.24-2.89,25.42-2,50.29,15.19,54.21,42,5.79,39.5-30.38,69.48-67.76,56-20.22-7.32-31.66-22.39-33.47-43.8-1.84-21.94,7.74-38.28,26.68-49.25,1.56-.9,3.21-1.64,5.14-2.63-.76-2.28-1.41-4.23-2.33-7-2.46,2-4.4,3.5-6.22,5.12-16.34,14.46-32.63,29-49,43.38-2.84,2.49-4.34,4.63-3.3,8.88,1.74,7.06-3.22,13.8-10.25,15.3-7.47,1.59-15.31-2.69-16.6-10-.73-4.16-2.69-4.56-6-4.57-15.34,0-30.67-.13-46-.41-1.91,0-4.37-.82-5.5-2.16-.64-.76.55-3.62,1.56-5.1,7.86-11.55,15.88-23,24.1-34.83-6.61-5.19-13.9-7.14-21.53-7.68-20.65-1.46-41.25,13.11-47.16,33.06a45.94,45.94,0,0,0,21.13,52.89c26.21,15,58.55,2.87,68.51-25.85C97.92,212.2,98.87,210.3,102.63,212.27Zm90.6-92.67c-.78-1.4-.91-2-1.24-2.16-3.37-1.81-6.61-4.07-10.2-5.22-14.74-4.73-24.94-13.91-30-28.74-1.2-3.53-3-6.86-8-4.68-.8.35-2.61-.48-3.28-1.31a3.5,3.5,0,0,1,.1-3.22c2.15-3.41,11.77-2.65,13.63,1,3.08,6.09,6,12.28,9.13,18.32,1.06,2,2.38,4.49,4.24,5.37,12.33,5.8,24.78,11.37,37.37,16.62,1.56.65,4.65-.47,6.1-1.79,3.35-3,2-7.37-2.71-10.08-9-5.12-18.06-10-26.87-15.36a15.32,15.32,0,0,1-5.65-6.44c-4.1-9.09-7.65-18.44-11.57-27.62s-9.81-12-19.2-8.46C131.41,51,117.76,56.34,104.32,62.14a53,53,0,0,0-14.69,9.2c-9.29,8.52-9.14,17.94-.45,27a50.9,50.9,0,0,0,4,3.8c10.08,8.46,20.21,16.85,30.26,25.35,7.93,6.71,7.78,6.7,2.61,15.9q-11.62,20.67-23,41.51c-2.94,5.41-1,9.7,5.47,13.19,5.2,2.8,6.34-1.91,8.11-4.69,11.14-17.58,22.1-35.26,33.15-52.9,5-8,4.79-11.17-2.06-17.89-8.44-8.29-17.12-16.33-25.47-24.7-1.32-1.32-1.5-3.77-2.21-5.71,2,.46,4.56.27,5.87,1.47,8.1,7.41,16,15.07,23.82,22.8,4.91,4.86,11,9.16,9.19,18.08h29.51c-1.56-8.86-1.56-8.86-10.25-8.81a10.27,10.27,0,0,1-2,0c-3.1-.62-8.59,1.85-8.5-3.12.08-4.63,5.55-2.75,8.7-3C181.76,119.36,187.17,119.6,193.23,119.6ZM188,143l-.6-1.68c-9.89-.27-19.78-.62-29.67-.66-1,0-2.21,1.77-3,2.94-4.69,7.27-9.29,14.58-13.89,21.91q-8.82,14.06-17.59,28.15c3.75,2.3,6.26,1.77,9.25-.92,15.71-14.13,31.68-28,47.5-42C182.78,148.33,185.32,145.6,188,143ZM57.4,199.36H98.7c-1-3.14-2.94-6.22-3-9.32-.09-10.79-6.57-17.42-14.43-24.59ZM100,178.57c7.13-12.9,14.2-25.71,21.73-39.35-7.19-.37-13.28-.75-19.38-.92a4,4,0,0,0-2.94,1.38c-4.92,6.82-9.71,13.74-14.27,20.25ZM171.43,34.69c2.12,4.16,3.76,7.49,5.5,10.77,5,9.41,13.53,10.08,19.66,1.46,1.79-2.53,3.11-5.4,5-8.75l-19.06-7.41C175.64,28.08,174.67,28.48,171.43,34.69ZM113,207.69c1.12,3.7,3.49,7.24,8,6.67a11.7,11.7,0,0,0,7.56-5.08c.91-1.5-.84-5.05-2.15-7.23-.48-.8-3.45-.89-4.75-.24C118.83,203.24,116.34,205.35,113,207.69ZM102.91,132.4h16.42C109,121.71,105.61,119.65,100.84,121,101.48,124.5,102.12,128,102.91,132.4Z"/></g></g></svg>