<svg xmlns="http://www.w3.org/2000/svg" viewBox="0 0 144.67 163.82"><g id="Vrstva_2" data-name="Vrstva 2"><g id="Vrstva_1-2" data-name="Vrstva 1"><path d="M0,90.72C0,70.89,0,51.06,0,31.23A15.68,15.68,0,0,1,20.89,16.37a3.73,3.73,0,0,1,2,2.89c0,.85-1.45,2.17-2.43,2.36-2.1.4-4.32.08-6.47.3-5,.51-8.3,3.85-8.31,8.91q-.07,59.49,0,119c0,5.57,2.79,8.27,8.41,8.27q58.25.09,116.48,0c5.56,0,8.3-2.81,8.3-8.42q.08-57,0-114c0-6-3-9.12-8.93-10.1-4.93-.81-9.93-1.31-14.77-2.5-1.52-.38-2.61-2.54-3.9-3.88,1.57-.62,3.2-1.89,4.69-1.74,5,.49,9.87,1.46,14.8,2.3,9.23,1.57,13.85,7,13.86,16.51q0,49.74,0,99.49c0,4.83.1,9.66,0,14.49-.16,8.27-5.24,13.52-13.44,13.53q-59,.09-118,0c-8.5,0-13.18-5-13.2-13.53Q0,120.46,0,90.72Z"/><path d="M72.28,59.93H19.84c-1.16,0-2.45.27-3.46-.14a15.83,15.83,0,0,1-3.25-2.43c1.08-1.05,2-2.43,3.31-3,1.09-.52,2.61-.16,3.94-.16q52.68,0,105.37.06c1.32,0,2.82-.2,3.91.35a3.89,3.89,0,0,1,2,2.88c0,.86-1.49,2.14-2.49,2.33a31.24,31.24,0,0,1-6,.11H72.28Z"/><path d="M25.48,89.63c4.17,0,8.35.05,12.53,0,10.26-.15,8.7,1.22,8.9-8.65,0-1.56.16-3.13.25-4.69l1.6,0c0,3.13-.21,6.29.09,9.39.13,1.35,1.26,3.72,2,3.74,9.93.25,19.86.17,30.32.17v-13l1.43-.1A56.88,56.88,0,0,1,83,84.16c-.31,4.28,1.16,6,5.65,5.72,5.33-.36,10.71-.09,16.06-.09,0,.57,0,1.15,0,1.72H83.24c0,7.88-.13,15.13.15,22.37,0,1.05,2,2,2.29,2.3-.91,2.6-2.22,4.9-2.45,7.31-.4,4.14-.11,8.34-.11,12.52h-2c0-4.33-.21-8.67.06-13,.24-3.81-.93-5.41-5-5.27-7.49.27-15,.25-22.48.07-3.61-.08-5.16,1-4.91,4.83.28,4.51.06,9,.06,13.58h-2c0-4.48-.27-9,.08-13.43.33-4.17-1.51-5.21-5.21-5.09-5.29.17-10.6.05-15.89.05L25.71,116c4.1,0,8.2,0,12.31,0,10.66-.07,8.7.75,8.78-8.66,0-3.67-.23-7.35.06-11,.3-3.87-1.3-5-4.91-4.76-4.15.25-8.33.12-12.49.07-1.35,0-2.7-.28-4.05-.43C25.43,90.67,25.46,90.15,25.48,89.63Zm55.6,26.25c0-7.62.13-14.42-.14-21.21,0-1-1.9-2.79-3-2.81-8.65-.23-17.31-.25-26,0-1.1,0-3,2-3.07,3.16a161.42,161.42,0,0,0-.07,17.46c.06,1.18,2,3.2,3,3.23C61.38,116,70.84,115.88,81.08,115.88Z"/><path d="M99.08,17.36c0-5.4-.29-9.25.14-13,.18-1.54,1.92-2.9,2.94-4.34,1.14,1.49,3.19,2.93,3.27,4.47.36,6.79-.05,13.63.26,20.43.1,2.41,1.82,4.73,2.12,7.17s.52,6.13-.72,6.92a10.49,10.49,0,0,1-8.08.78c-1.47-.51-3.3-5.07-2.65-5.84C101.12,28.3,98.39,21.81,99.08,17.36Z"/><path d="M105.17,120.3l12.16-17.75c.75-1.09,1.36-2.56,2.42-3.1A5.84,5.84,0,0,1,124.1,99c.66.28,1.17,2.93.61,3.8-5.35,8.41-10.83,16.75-16.64,24.84-.62.86-4.2.76-5.4-.18a50.51,50.51,0,0,1-8.35-8.5c-.84-1-.36-3.14-.48-4.75,1.63,0,3.63-.63,4.81.09C100.85,115.7,102.57,117.84,105.17,120.3Z"/><path d="M35.23,16.38a72.49,72.49,0,0,0,.09,9A16.61,16.61,0,0,0,37.52,32c1.88,3,1.43,5.42-.92,7.56a5.86,5.86,0,0,1-8.18.25c-2.5-2-3.13-4.41-1.67-7.51a19.67,19.67,0,0,0,2.16-7.17c.27-6.65-.17-13.32.16-20,.09-1.81,1.71-4.9,2.91-5,3.56-.44,3.37,2.77,3.4,5.26,0,3.66,0,7.33,0,11Z"/><path d="M67.34,21.7c-7.48,0-15,.13-22.43-.12-1.33,0-2.61-1.64-3.92-2.51,1.27-1,2.52-2.77,3.8-2.79q22.44-.35,44.87-.09c1.21,0,2.41,2,3.61,3-1.33.83-2.64,2.34-4,2.38C82,21.82,74.65,21.7,67.34,21.7Z"/><path d="M110.91,76.37V95.92h-1.24V76.28Z"/></g></g></svg>