<?xml version="1.0" encoding="UTF-8"?>
<svg width="24px" height="24px" viewBox="0 0 24 24" version="1.1" xmlns="http://www.w3.org/2000/svg">
    <g stroke="none" stroke-width="1" fill="none" fill-rule="evenodd">
        <path d="M11,7 L9,7 L9,5 L11,5 L11,7 Z M11,19 L9,19 L9,17 L11,17 L11,19 Z M11,13 L9,13 L9,11 L11,11 L11,13 Z M5,7 L3,7 L3,5 L5,5 L5,7 Z M5,19 L3,19 L3,17 L5,17 L5,19 Z M5,13 L3,13 L3,11 L5,11 L5,13 Z M19,7 L17,7 L17,5 L19,5 L19,7 Z M19,19 L17,19 L17,17 L19,17 L19,19 Z M19,13 L17,13 L17,11 L19,11 L19,13 Z M7,7 L7,5 L9,5 L9,7 L7,7 Z M7,19 L7,17 L9,17 L9,19 L7,19 Z M7,13 L7,11 L9,11 L9,13 L7,13 Z M13,7 L13,5 L15,5 L15,7 L13,7 Z M13,19 L13,17 L15,17 L15,19 L13,19 Z M13,13 L13,11 L15,11 L15,13 L13,13 Z" fill="currentColor" fill-rule="nonzero" stroke="currentColor" stroke-width="0.5"></path>
    </g>
</svg> 