<svg width="36" height="36" viewBox="0 0 36 36" fill="none" xmlns="http://www.w3.org/2000/svg">
<rect width="36" height="36" rx="12" fill="#3C3DF2"/>
<path d="M7.62 11.932C7.62 11.7293 7.70533 11.628 7.876 11.628H10.164C10.3347 11.628 10.42 11.724 10.42 11.916V21.244C10.42 21.3827 10.4787 21.452 10.596 21.452H15.7C15.892 21.452 15.988 21.532 15.988 21.692V23.212C15.988 23.2973 15.9613 23.3667 15.908 23.42C15.8653 23.4733 15.7907 23.5 15.684 23.5H7.972C7.83333 23.5 7.73733 23.4733 7.684 23.42C7.64133 23.3667 7.62 23.2813 7.62 23.164V11.932ZM17.5486 23.5C17.4526 23.5 17.3833 23.4573 17.3406 23.372C17.298 23.2867 17.298 23.1747 17.3406 23.036L21.3246 11.948C21.3673 11.8307 21.4153 11.7507 21.4686 11.708C21.522 11.6547 21.6126 11.628 21.7406 11.628H24.1406C24.3753 11.628 24.5353 11.7453 24.6206 11.98L28.5726 23.068C28.6046 23.1533 28.6046 23.2493 28.5726 23.356C28.5406 23.452 28.4766 23.5 28.3806 23.5H26.0286C25.8686 23.5 25.7673 23.4253 25.7246 23.276L24.8926 20.94C24.882 20.8867 24.8606 20.844 24.8286 20.812C24.8073 20.78 24.7593 20.764 24.6846 20.764H20.7806C20.674 20.764 20.6046 20.8173 20.5726 20.924L19.7246 23.292C19.7033 23.356 19.666 23.4093 19.6126 23.452C19.57 23.484 19.4953 23.5 19.3886 23.5H17.5486ZM24.0286 18.636C24.178 18.636 24.226 18.5453 24.1726 18.364L22.8286 14.62C22.7966 14.556 22.7593 14.524 22.7166 14.524C22.6846 14.524 22.6526 14.5613 22.6206 14.636L21.2606 18.364C21.186 18.5453 21.234 18.636 21.4046 18.636H24.0286Z" fill="#FAFAFA"/>
</svg>
