<svg width="14" height="14" viewBox="0 0 14 14" fill="none" xmlns="http://www.w3.org/2000/svg">
<path d="M1.55556 14C1.12778 14 0.761704 13.8478 0.457333 13.5434C0.152963 13.2391 0.000518518 12.8727 0 12.4444V1.55556C0 1.12778 0.152444 0.761704 0.457333 0.457333C0.762222 0.152963 1.1283 0.000518518 1.55556 0H12.4444C12.8722 0 13.2386 0.152444 13.5434 0.457333C13.8483 0.762222 14.0005 1.1283 14 1.55556V12.4444C14 12.8722 13.8478 13.2386 13.5434 13.5434C13.2391 13.8483 12.8727 14.0005 12.4444 14H1.55556ZM7 10.1111C7.49259 10.1111 7.93981 9.96852 8.34167 9.68333C8.74352 9.39815 9.02222 9.02222 9.17778 8.55555H12.4444V1.55556H1.55556V8.55555H4.82222C4.97778 9.02222 5.25648 9.39815 5.65833 9.68333C6.06018 9.96852 6.50741 10.1111 7 10.1111Z" fill="#686868"/>
</svg>
