<svg width="36" height="38" viewBox="0 0 36 38" fill="none" xmlns="http://www.w3.org/2000/svg">
<path d="M29.0573 7.92361C31.0758 7.92361 32.718 6.28138 32.718 4.26283C32.718 2.24428 31.0759 0.602051 29.0573 0.602051C27.0386 0.602051 25.3965 2.24428 25.3965 4.26283C25.3965 6.28138 27.0387 7.92361 29.0573 7.92361ZM29.0573 1.67888C30.4821 1.67888 31.6412 2.83797 31.6412 4.26283C31.6412 5.68769 30.4821 6.84679 29.0573 6.84679C27.6324 6.84679 26.4733 5.68769 26.4733 4.26283C26.4733 2.83797 27.6325 1.67888 29.0573 1.67888Z" fill="black"/>
<path d="M34.4824 16.5063H31.6251C31.3277 16.5063 31.0867 16.7473 31.0867 17.0447C31.0867 17.3421 31.3277 17.5831 31.6251 17.5831H34.4824C34.5239 17.5831 34.5578 17.6168 34.5578 17.6583C34.5578 18.93 33.5231 19.9646 32.2515 19.9646H26.3534C25.5775 19.9646 24.9464 19.3334 24.9464 18.5575V16.2233L26.2083 14.0375C26.6322 13.3033 26.85 12.489 26.853 11.6636C27.1616 12.4179 27.3279 13.2347 27.3279 14.0726V16.9252C27.3279 17.288 27.6229 17.583 27.9857 17.583H29.1125C29.4099 17.583 29.6509 17.342 29.6509 17.0446C29.6509 16.7472 29.4099 16.5062 29.1125 16.5062H28.4047V14.0726C28.4047 11.4177 26.9764 8.94377 24.6771 7.61619C17.1788 3.28763 17.7985 3.64334 17.6201 3.54033C17.1815 3.28713 16.6877 3.17593 16.1935 3.21376H8.63931C8.34197 3.21376 8.1009 3.45475 8.1009 3.75217C8.1009 4.04959 8.34197 4.29059 8.63931 4.29059H14.3268C14.2359 4.42397 14.2171 4.4707 13.7658 5.24832H1.55566C1.29162 5.24832 1.07683 5.03353 1.07683 4.76949C1.07683 4.50538 1.29162 4.29059 1.55566 4.29059H6.12672C6.42406 4.29059 6.66513 4.04959 6.66513 3.75217C6.66513 3.45475 6.42406 3.21376 6.12672 3.21376H1.55566C0.697856 3.21376 0 3.91169 0 4.76949C0 5.62729 0.697856 6.32514 1.55566 6.32514H13.1441C11.3801 9.38053 11.5096 9.15433 11.4673 9.23394H7.45416C6.59636 9.23394 5.8985 9.9318 5.8985 10.7896C5.8985 11.6474 6.59636 12.3453 7.45416 12.3453H11.4398C11.7261 12.9129 12.175 13.4062 12.7655 13.7471C13.3156 14.0647 14.0217 13.8756 14.3392 13.3255L17.1289 8.49359L19.5392 9.88521C18.1881 12.2254 16.3897 15.3404 15.0219 17.7095H3.56236C2.70456 17.7095 2.0067 18.4074 2.0067 19.2652C2.0067 20.123 2.70456 20.8208 3.56236 20.8208H13.2256L11.5558 23.713H5.61084C3.90393 23.713 2.51525 25.1016 2.51525 26.8085C2.51525 27.6023 3.16106 28.2481 3.9549 28.2481H12.0357C13.3547 28.2481 14.5838 27.5385 15.2434 26.3962L17.2122 22.986L17.8964 24.171C18.045 24.4286 18.3745 24.5167 18.6318 24.3681C18.8893 24.2194 18.9776 23.8901 18.8289 23.6326C18.4069 22.9017 17.43 21.2097 17.0186 20.4971C16.2899 19.2349 16.2899 17.6666 17.0186 16.4045L20.7409 9.95728C20.8896 9.69978 20.8014 9.37048 20.5439 9.22181L17.3044 7.3515C16.9883 7.16916 16.5868 7.27871 16.406 7.59235L13.4068 12.787C13.386 12.8229 13.3397 12.8352 13.3039 12.8146C12.2026 12.1788 11.8239 10.7655 12.4598 9.66417C13.1616 8.44872 14.4584 6.20253 15.1596 4.98794C15.5475 4.316 16.4098 4.08499 17.0816 4.47286L23.9142 8.41764C25.695 9.44586 26.3037 11.7185 25.2758 13.499C24.7173 14.4664 21.414 20.1877 20.8663 21.1364C20.6416 21.5255 20.6416 22.0088 20.8663 22.398L23.2183 26.4718C23.6861 27.282 23.686 28.2887 23.2183 29.0989L19.1779 36.097C19.0783 36.2693 18.8609 36.3317 18.693 36.236C17.7203 35.6821 17.3824 34.4437 17.9434 33.4722C18.3119 32.834 20.8906 28.3676 21.0294 28.1271C21.1508 27.9162 21.1508 27.6544 21.0291 27.4432L20.0882 25.8134C19.9395 25.5558 19.6101 25.4678 19.3527 25.6164C19.0952 25.765 19.007 26.0943 19.1557 26.3518L19.9833 27.7854L17.5702 31.9651H7.63657C6.77877 31.9651 6.08092 32.663 6.08092 33.5208C6.08092 34.3786 6.77877 35.0765 7.63657 35.0765H16.6536C16.8263 35.9514 17.3571 36.7146 18.1602 37.1719C18.8407 37.5594 19.7157 37.3191 20.1104 36.6355L24.1508 29.6374C24.8104 28.495 24.8104 27.0757 24.1508 25.9334L21.7988 21.8597C21.7659 21.8027 21.7659 21.732 21.7988 21.675L23.8695 18.0884V18.5575C23.8695 19.9271 24.9838 21.0414 26.3534 21.0414H32.2515C34.1169 21.0414 35.6346 19.5237 35.6346 17.6583C35.6346 17.0231 35.1177 16.5063 34.4824 16.5063ZM3.56236 19.7441C3.29832 19.7441 3.08353 19.5293 3.08353 19.2652C3.08353 19.0012 3.29832 18.7864 3.56236 18.7864H14.4002L13.8473 19.7441H3.56236ZM16.5906 21.9093L14.3109 25.8579C13.8431 26.6681 12.9713 27.1714 12.0358 27.1714H3.95497C3.7549 27.1714 3.59215 27.0086 3.59215 26.8085C3.59215 25.6954 4.49776 24.7899 5.61092 24.7899H11.7825C12.0263 24.7899 12.2534 24.6587 12.3751 24.4476C12.7091 23.8691 15.1465 19.6475 15.4413 19.1368C15.5291 19.7967 15.744 20.4429 16.0863 21.0356L16.5906 21.9093ZM7.45416 11.2684C7.19012 11.2684 6.97533 11.0536 6.97533 10.7896C6.97533 10.5256 7.19012 10.3108 7.45416 10.3108H11.112C11.064 10.6304 11.0627 10.9529 11.1055 11.2684H7.45416ZM7.15774 33.5208C7.15774 33.2567 7.37253 33.0419 7.63657 33.0419H16.9512C16.7912 33.3458 16.6844 33.6687 16.6321 33.9997H7.63657C7.37253 33.9997 7.15774 33.7848 7.15774 33.5208Z" fill="black"/>
</svg>
