<svg width="14" height="14" viewBox="0 0 14 14" fill="none" xmlns="http://www.w3.org/2000/svg">
<path fill-rule="evenodd" clip-rule="evenodd" d="M7.89552 0.1064C7.63652 -3.12924e-08 7.30752 0 6.65022 0C5.99292 0 5.66462 -3.12924e-08 5.40492 0.1064C5.06014 0.247948 4.78569 0.520636 4.64192 0.8645C4.57612 1.0206 4.55092 1.2033 4.54042 1.4686C4.53575 1.66082 4.48213 1.84868 4.38463 2.0144C4.28713 2.18013 4.14897 2.31825 3.98322 2.4157C3.81434 2.50957 3.6245 2.5593 3.43129 2.56028C3.23808 2.56126 3.04774 2.51346 2.87792 2.4213C2.64132 2.2967 2.46982 2.2281 2.30042 2.2057C1.92981 2.15704 1.55497 2.25666 1.25742 2.4829C1.03482 2.6523 0.870321 2.9351 0.542021 3.5C0.213021 4.0649 0.0492209 4.347 0.0121209 4.6235C-0.0368791 4.9917 0.0639209 5.3641 0.292121 5.6588C0.395721 5.7932 0.542021 5.9059 0.768121 6.0473C1.10202 6.2552 1.31622 6.6094 1.31622 7C1.31622 7.3906 1.10202 7.7448 0.768821 7.952C0.542021 8.0941 0.395721 8.2068 0.291421 8.3412C0.178779 8.48676 0.0960994 8.6532 0.0481599 8.8309C0.000220424 9.0086 -0.0120286 9.19404 0.0121209 9.3765C0.0492209 9.6523 0.213021 9.9351 0.542021 10.5C0.871021 11.0649 1.03482 11.347 1.25742 11.5171C1.55422 11.7432 1.92942 11.8426 2.30042 11.7943C2.46982 11.7719 2.64132 11.7033 2.87792 11.5787C3.04783 11.4864 3.23829 11.4385 3.43164 11.4395C3.62499 11.4405 3.81496 11.4903 3.98392 11.5843C4.32412 11.7803 4.52572 12.1408 4.54042 12.5314C4.55092 12.7974 4.57612 12.9794 4.64192 13.1355C4.78472 13.4785 5.05912 13.7515 5.40492 13.8936C5.66392 14 5.99292 14 6.65022 14C7.30752 14 7.63652 14 7.89552 13.8936C8.2403 13.7521 8.51476 13.4794 8.65852 13.1355C8.72432 12.9794 8.74952 12.7974 8.76002 12.5314C8.77402 12.1408 8.97632 11.7796 9.31722 11.5843C9.4861 11.4904 9.67594 11.4407 9.86915 11.4397C10.0624 11.4387 10.2527 11.4865 10.4225 11.5787C10.6591 11.7033 10.8306 11.7719 11 11.7943C11.371 11.8433 11.7462 11.7432 12.043 11.5171C12.2656 11.3477 12.4301 11.0649 12.7584 10.5C13.0874 9.9351 13.2512 9.653 13.2883 9.3765C13.3124 9.19399 13.3 9.00852 13.252 8.83082C13.2039 8.65312 13.1211 8.48671 13.0083 8.3412C12.9047 8.2068 12.7584 8.0941 12.5323 7.9527C12.1984 7.7448 11.9842 7.3906 11.9842 7C11.9842 6.6094 12.1984 6.2552 12.5316 6.048C12.7584 5.9059 12.9047 5.7932 13.009 5.6588C13.1217 5.51324 13.2043 5.3468 13.2523 5.1691C13.3002 4.9914 13.3125 4.80596 13.2883 4.6235C13.2512 4.3477 13.0874 4.0649 12.7584 3.5C12.4294 2.9351 12.2656 2.653 12.043 2.4829C11.7455 2.25666 11.3706 2.15704 11 2.2057C10.8306 2.2281 10.6591 2.2967 10.4225 2.4213C10.2526 2.51358 10.0622 2.56145 9.8688 2.56047C9.67545 2.55949 9.48549 2.5097 9.31652 2.4157C9.1509 2.31816 9.01288 2.18001 8.9155 2.01429C8.81813 1.84857 8.76462 1.66076 8.76002 1.4686C8.74952 1.2026 8.72432 1.0206 8.65852 0.8645C8.58737 0.694215 8.48336 0.539618 8.35244 0.40954C8.22152 0.279463 8.06626 0.176454 7.89552 0.1064ZM6.65022 9.1C7.81922 9.1 8.76632 8.1599 8.76632 7C8.76632 5.8401 7.81852 4.9 6.65022 4.9C5.48122 4.9 4.53412 5.8401 4.53412 7C4.53412 8.1599 5.48192 9.1 6.65022 9.1Z" fill="#FCFCFC"/>
</svg>
