<svg width="10" height="14" viewBox="0 0 10 14" fill="none" xmlns="http://www.w3.org/2000/svg">
<path d="M3.527 9.7807L3.526 9.7777L3.336 9.7157C2.43236 9.3963 1.63955 8.82392 1.052 8.0667C0.576885 7.45488 0.250424 6.74104 0.0983675 5.98147C-0.0536889 5.22191 -0.0271814 4.4374 0.175799 3.68983C0.37878 2.94226 0.752681 2.25208 1.26801 1.67373C1.78334 1.09537 2.426 0.644663 3.14531 0.357151C3.86461 0.0696396 4.64088 -0.0468104 5.41288 0.0169866C6.18488 0.0807836 6.93151 0.323083 7.59385 0.724771C8.2562 1.12646 8.81616 1.67655 9.22956 2.33166C9.64296 2.98676 9.89849 3.72896 9.976 4.4997C10.003 4.7747 9.776 4.9987 9.5 4.9987C9.224 4.9987 9.003 4.7737 8.97 4.4997C8.88075 3.79254 8.60416 3.12206 8.16885 2.55765C7.73354 1.99324 7.15532 1.55541 6.49402 1.28944C5.83272 1.02348 5.11237 0.939054 4.40749 1.0449C3.70261 1.15075 3.03883 1.44302 2.48481 1.89148C1.93079 2.33993 1.50666 2.92828 1.25631 3.59565C1.00597 4.26302 0.938499 4.98516 1.06088 5.68735C1.18327 6.38955 1.49106 7.04628 1.95242 7.58961C2.41377 8.13294 3.01193 8.54311 3.685 8.7777C3.85478 8.46805 4.12836 8.22822 4.45758 8.10046C4.7868 7.97269 5.15054 7.96518 5.48476 8.07924C5.81897 8.19329 6.10223 8.42161 6.28465 8.72399C6.46707 9.02637 6.53696 9.38341 6.48201 9.73225C6.42706 10.0811 6.25079 10.3994 5.98424 10.631C5.7177 10.8627 5.37796 10.9929 5.02487 10.9986C4.67177 11.0044 4.32796 10.8855 4.05396 10.6627C3.77997 10.4399 3.59336 10.1276 3.527 9.7807ZM2.734 10.5557C1.75461 10.1559 0.89834 9.50416 0.252 8.6667C0.0877154 8.91308 3.22698e-05 9.20258 0 9.4987V9.9987C0 11.9697 1.86 13.9987 5 13.9987C8.14 13.9987 10 11.9697 10 9.9987V9.4987C10 9.10088 9.84196 8.71935 9.56066 8.43804C9.27936 8.15674 8.89782 7.9987 8.5 7.9987H7C7.20974 8.27881 7.35834 8.59984 7.43618 8.941C7.51403 9.28216 7.51938 9.63587 7.4519 9.97923C7.38442 10.3226 7.24561 10.648 7.04445 10.9343C6.84328 11.2206 6.58425 11.4615 6.2841 11.6414C5.98396 11.8214 5.64939 11.9362 5.30204 11.9787C4.95469 12.0211 4.6023 11.9902 4.26767 11.8878C3.93304 11.7855 3.62362 11.614 3.35943 11.3846C3.09524 11.1551 2.88217 10.8727 2.734 10.5557ZM8 4.9987C8 4.0847 7.591 3.2657 6.946 2.7157C6.63108 2.44895 6.2645 2.25005 5.86919 2.13143C5.47389 2.01282 5.05837 1.97705 4.64861 2.02635C4.23885 2.07566 3.84367 2.20898 3.48778 2.41798C3.1319 2.62698 2.82297 2.90716 2.58031 3.24101C2.33766 3.57485 2.16649 3.95517 2.07753 4.35819C1.98856 4.7612 1.98371 5.17823 2.06327 5.58321C2.14283 5.98818 2.3051 6.37238 2.53993 6.71178C2.77475 7.05118 3.07708 7.33848 3.428 7.5557C3.87266 7.19522 4.42757 6.99825 5 6.9977C5.57219 6.99768 6.12707 7.19394 6.572 7.5537C7.0084 7.28522 7.36876 6.90943 7.61874 6.46217C7.86872 6.01491 7.99997 5.51108 8 4.9987Z" fill="#FCFCFC"/>
</svg>
