<svg width="34" height="35" viewBox="0 0 34 35" fill="none" xmlns="http://www.w3.org/2000/svg">
<path d="M28.8995 18.3445C28.1547 18.3445 27.4152 18.1699 26.7306 17.8249C25.5797 17.2442 24.7238 16.2503 24.3204 15.0263C23.9171 13.802 24.0144 12.4941 24.595 11.3434C25.1757 10.1924 26.1699 9.33685 27.3942 8.93363C28.6176 8.53068 29.9261 8.62763 31.0779 9.20829C32.2288 9.78895 33.0847 10.7829 33.4884 12.0069C33.8916 13.2312 33.7941 14.5391 33.2135 15.6898C32.6328 16.8408 31.6386 17.6963 30.4143 18.0996C29.9176 18.2632 29.4073 18.3442 28.8995 18.3445ZM28.9077 10.2984C28.569 10.2984 28.2288 10.3523 27.8978 10.4615C27.0818 10.7301 26.4191 11.3009 26.032 12.0677C25.645 12.8349 25.58 13.7066 25.849 14.5229C26.1178 15.3389 26.6884 16.0014 27.4555 16.3884C28.2232 16.7751 29.0947 16.841 29.911 16.5714C30.727 16.3029 31.3897 15.732 31.7767 14.9652C32.1637 14.1981 32.2291 13.326 31.96 12.51C31.6909 11.694 31.1206 11.0315 30.3532 10.6445C29.8969 10.4148 29.4042 10.2984 28.9077 10.2984ZM32.8201 21.2477C31.7903 22.3525 30.6746 22.9209 29.4947 22.9371H29.452C27.3761 22.9371 25.7083 21.2531 25.692 21.2371L25.1021 20.6256L24.8715 20.8724L24.9467 17.7941L19.0033 7.12207L6.33994 9.22423C5.57281 9.36899 4.89706 9.8357 4.48959 10.5006C4.07655 11.1601 3.95861 11.97 4.16792 12.7262C4.55414 14.142 5.99144 15.0215 7.429 14.7266L14.9326 13.2089L16.1072 15.3862L1.50184 21.5429C1.30342 21.3713 1.1908 21.2533 1.18548 21.248L0 22.3419C0.0857969 22.433 2.06497 24.5407 4.78444 24.546C4.78444 24.546 4.78975 24.546 4.79506 24.546C6.20022 24.546 7.52516 23.9938 8.7372 22.8944C9.55799 23.5433 11.1294 24.546 13.0387 24.546H13.0924C14.5031 24.5354 15.8225 23.9829 17.0239 22.905C17.8232 23.5592 19.3356 24.5407 21.1916 24.546C21.1969 24.546 21.1969 24.546 21.2022 24.546C22.6129 24.546 23.9323 23.9938 25.1443 22.8944C25.9651 23.5433 27.5365 24.546 29.4514 24.546H29.4998C31.1411 24.5298 32.6535 23.7898 33.9997 22.3419L32.8201 21.2477ZM21.2025 22.9371C19.1911 22.9371 17.6088 21.2639 17.5926 21.2477L17.0027 20.6094L16.4127 21.2477C15.3829 22.3525 14.2673 22.9209 13.0873 22.9371H13.0443C10.9687 22.9371 9.30059 21.2531 9.28439 21.2371L8.69444 20.6256L8.11511 21.2477C7.59475 21.8109 7.05314 22.2292 6.50064 22.5134C5.94814 22.7977 5.3797 22.9371 4.79506 22.9371C4.20511 22.9371 3.6473 22.7924 3.15908 22.5886L18.365 16.1855L15.785 11.3912L7.1068 13.1502C6.49533 13.2734 5.88386 12.8981 5.71758 12.2975C5.62647 11.9703 5.67455 11.6326 5.85172 11.3482C6.03394 11.0586 6.31311 10.8708 6.62416 10.8066L18.1507 8.89751L23.3267 18.1968L23.2302 22.3315C22.576 22.7337 21.9 22.9374 21.208 22.9374C21.2025 22.9371 21.2025 22.9371 21.2025 22.9371ZM25.1462 27.1847C25.9736 27.8406 27.5828 28.8648 29.5003 28.8364C31.1408 28.8212 32.6546 28.0802 33.9992 26.6333L32.8206 25.5381C31.7916 26.645 30.6733 27.2132 29.4961 27.2272C29.4807 27.2275 29.4655 27.2275 29.4501 27.2275C27.3761 27.2275 25.7085 25.5426 25.6931 25.527L25.1034 24.9155L24.5249 25.5379C23.4839 26.6575 22.3672 27.2262 21.2059 27.2272H21.2014C19.1919 27.2272 17.6067 25.5551 17.5923 25.5397L17.0032 24.9014L16.4119 25.5379C15.3829 26.6447 14.2646 27.2129 13.0873 27.227C13.0719 27.2272 13.0568 27.2272 13.0414 27.2272C10.9674 27.2272 9.2998 25.5424 9.28439 25.5267L8.6947 24.9152L8.11617 25.5376C7.07519 26.6572 5.95877 27.2259 4.79719 27.227H4.79267C2.78322 27.227 1.19797 25.5549 1.18362 25.5394L0.000796875 26.6304C0.0839375 26.7201 2.06284 28.8311 4.78337 28.8359C4.78656 28.8359 4.78975 28.8359 4.79267 28.8359C6.20155 28.8359 7.52542 28.281 8.7372 27.1839C9.56463 27.8398 11.1703 28.864 13.0913 28.8356C14.5047 28.8226 15.8241 28.2706 17.022 27.1927C17.8202 27.8461 19.333 28.8327 21.1918 28.8359C21.195 28.8359 21.1982 28.8359 21.2011 28.8359C22.6108 28.8367 23.9347 28.2818 25.1462 27.1847Z" fill="#282828"/>
</svg>
