<svg width="12" height="14" viewBox="0 0 12 14" fill="none" xmlns="http://www.w3.org/2000/svg">
<path fill-rule="evenodd" clip-rule="evenodd" d="M2.79122 0.7C2.59885 1.14165 2.49971 1.61827 2.50002 2.1C2.50002 2.4713 2.64752 2.8274 2.91007 3.08995C3.17263 3.3525 3.52872 3.5 3.90002 3.5H8.10002C8.47133 3.5 8.82742 3.3525 9.08997 3.08995C9.35252 2.8274 9.50002 2.4713 9.50002 2.1C9.50002 1.6023 9.39642 1.1284 9.20882 0.7H10.2C10.5713 0.7 10.9274 0.847499 11.19 1.11005C11.4525 1.3726 11.6 1.7287 11.6 2.1V12.6C11.6 12.9713 11.4525 13.3274 11.19 13.5899C10.9274 13.8525 10.5713 14 10.2 14H1.80002C1.42872 14 1.07263 13.8525 0.810075 13.5899C0.547524 13.3274 0.400024 12.9713 0.400024 12.6V2.1C0.400024 1.7287 0.547524 1.3726 0.810075 1.11005C1.07263 0.847499 1.42872 0.7 1.80002 0.7H2.79122ZM6.00002 8.4H3.90002C3.71437 8.4 3.53633 8.47375 3.40505 8.60503C3.27377 8.7363 3.20002 8.91435 3.20002 9.1C3.20002 9.28565 3.27377 9.4637 3.40505 9.59497C3.53633 9.72625 3.71437 9.8 3.90002 9.8H6.00002C6.18568 9.8 6.36372 9.72625 6.495 9.59497C6.62627 9.4637 6.70002 9.28565 6.70002 9.1C6.70002 8.91435 6.62627 8.7363 6.495 8.60503C6.36372 8.47375 6.18568 8.4 6.00002 8.4ZM8.10002 5.6H3.90002C3.72161 5.6002 3.55 5.66852 3.42027 5.79099C3.29053 5.91347 3.21246 6.08087 3.202 6.25898C3.19155 6.43709 3.2495 6.61247 3.36401 6.74928C3.47852 6.8861 3.64096 6.97403 3.81812 6.9951L3.90002 7H8.10002C8.28568 7 8.46372 6.92625 8.595 6.79497C8.72627 6.6637 8.80002 6.48565 8.80002 6.3C8.80002 6.11435 8.72627 5.9363 8.595 5.80503C8.46372 5.67375 8.28568 5.6 8.10002 5.6ZM6.00002 0C6.29548 6.69484e-06 6.58761 0.0623586 6.85732 0.182981C7.12703 0.303603 7.36825 0.479781 7.56522 0.7C7.86482 1.0346 8.05802 1.4651 8.09372 1.9404L8.10002 2.1H3.90002C3.90002 1.5925 4.07992 1.127 4.37952 0.7644L4.43482 0.7C4.81982 0.2702 5.37842 0 6.00002 0Z" fill="#FCFCFC"/>
</svg>
