<svg width="16" height="21" viewBox="0 0 16 21" fill="none" xmlns="http://www.w3.org/2000/svg">
<path d="M8.01294 9.28613C5.66894 9.28613 3.76294 7.37913 3.76294 5.03613C3.76294 2.69313 5.66894 0.786133 8.01294 0.786133C10.3569 0.786133 12.2629 2.69313 12.2629 5.03613C12.2629 7.37913 10.3569 9.28613 8.01294 9.28613ZM8.01294 2.28613C6.49594 2.28613 5.26294 3.51913 5.26294 5.03613C5.26294 6.55313 6.49594 7.78613 8.01294 7.78613C9.52994 7.78613 10.7629 6.55313 10.7629 5.03613C10.7629 3.51913 9.52894 2.28613 8.01294 2.28613ZM12.0009 20.2861H4.00696C1.58696 20.2861 0.253906 18.9612 0.253906 16.5552C0.253906 13.8942 1.75991 10.7861 6.00391 10.7861H10.0039C14.2479 10.7861 15.7539 13.8932 15.7539 16.5552C15.7539 18.9612 14.4209 20.2861 12.0009 20.2861ZM6.00391 12.2861C2.06091 12.2861 1.75391 15.5532 1.75391 16.5552C1.75391 18.1192 2.42796 18.7861 4.00696 18.7861H12.0009C13.5799 18.7861 14.2539 18.1192 14.2539 16.5552C14.2539 15.5542 13.9469 12.2861 10.0039 12.2861H6.00391Z" fill="#4B5563"/>
</svg>
